{"title":"Titanic (1997) DVDRip NicoLiV","uid":6776443,"size":2717834658,"categoryP":"video","categoryS":"movies","magnet":"?xt=urn:btih:3689e5b8538696d6cce06c9b726a4154ec40d3c3&amp;dn=Titanic+%281997%29+DVDRip+NicoLiV&amp;tr=udp%3A%2F%2Ftracker.openbittorrent.com%3A80&amp;tr=udp%3A%2F%2Fopen.demonii.com%3A1337&amp;tr=udp%3A%2F%2Ftracker.coppersurfer.tk%3A6969&amp;tr=udp%3A%2F%2Fexodus.desync.com%3A6969","seeders":1,"leechers":0,"uploader":"nicoliv2012","files":4,"time":1319748455,"description":"Audio : English\n\nSubtitle : Romanian\n\nGeneral\n\nCompleteName                     : C:\\AVI\\Titanic (1997) DVDRip DivX NicoLiV (RO)\\Titanic CD1.avi\nFormat                           : AVI\nFormat/Info                      : Audio Video Interleave\nFormat_Profile                   : OpenDML\nFileSize/String                  : 1.40 GiB\nDuration/String                  : 1h 43mn\nOverallBitRate/String            : 1 938 Kbps\nEncoded_Application              : MEncoder version Beta 4.4.5 building on 20110111\nEncoded_Library/String           : [= DigiArty videodll!\n\nVideo\n\nID/String                        : 0\nFormat                           : MPEG-4 Visual\nCodecID                          : DX50\nCodecID/Hint                     : DivX 5\nDuration/String                  : 1h 43mn\nBitRate/String                   : 1 795 Kbps\nWidth/String                     : 720 pixels\nHeight/String                    : 404 pixels\nDisplayAspectRatio/String        : 16:9\nFrameRate/String                 : 25.000 fps\nColorSpace                       : YUV\nChromaSubsampling                : 4:2:0\nCompression_Mode/String          : Lossy\nBits-(Pixel*Frame)               : 0.247\nStreamSize/String                : 1.30 GiB (93%)\n\nAudio\n\nID/String                        : 1\nFormat                           : MPEG Audio\nCodecID                          : 55\nCodecID/Hint                     : MP3\nDuration/String                  : 1h 43mn\nBitRate/String                   : 128 Kbps\nChannel(s)/String                : 2 channels\nSamplingRate/String              : 48.0 KHz\nCompression_Mode/String          : Lossy\nStreamSize/String                : 113 KiB (0%)\nAlignment/String                 : Aligned on interleaves\nInterleave_Duration/String       : 20643 ms (516.06 video frames)\nInterleave_Preload/String        : 504 ms\n\nGeneral\n\nComplete name                    : C:\\AVI\\Titanic (1997) DVDRip DivX NicoLiV (RO)\\Titanic CD2.avi\nFormat                           : AVI\nFormat/Info                      : Audio Video Interleave\nFormat profile                   : OpenDML\nFile size                        : 1.13 GiB\nDuration                         : 1h 23mn\nOverall bit rate                 : 1 942 Kbps\nWriting application              : MEncoder version Beta 4.4.5 building on 20110111\nWriting library                  : [= DigiArty videodll!\n\nVideo\n\nID                               : 0\nFormat                           : MPEG-4 Visual\nFormat profile                   : Simple@L1\nFormat settings, BVOP            : No\nFormat settings, QPel            : No\nFormat settings, GMC             : No warppoints\nFormat settings, Matrix          : Default (H.263)\nCodec ID                         : DX50\nCodec ID/Hint                    : DivX 5\nDuration                         : 1h 23mn\nBit rate                         : 1 797 Kbps\nWidth                            : 720 pixels\nHeight                           : 404 pixels\nDisplay aspect ratio             : 16:9\nFrame rate                       : 25.000 fps\nColor space                      : YUV\nChroma subsampling               : 4:2:0\nBit depth                        : 8 bits\nScan type                        : Progressive\nCompression mode                 : Lossy\nBits/(Pixel*Frame)               : 0.247\nStream size                      : 1.05 GiB (93%)\nWriting library                  : DigiArty AV Encoder Core\n\nAudio\n\nID                               : 1\nFormat                           : MPEG Audio\nCodec ID                         : 55\nCodec ID/Hint                    : MP3\nDuration                         : 1h 23mn\nBit rate                         : 128 Kbps\nChannel(s)                       : 2 channels\nSampling rate                    : 48.0 KHz\nCompression mode                 : Lossy\nStream size                      : 2.24 MiB (0%)\nAlignment                        : Aligned on interleaves\nInterleave, duration             : 816 ms (20.39 video frames)\nInterleave, preload duration     : 504 ms\n\n","torrent":{"xt":"urn:btih:3689e5b8538696d6cce06c9b726a4154ec40d3c3","amp;dn":"Titanic+%281997%29+DVDRip+NicoLiV","amp;tr":["udp%3A%2F%2Ftracker.openbittorrent.com%3A80","udp%3A%2F%2Fopen.demonii.com%3A1337","udp%3A%2F%2Ftracker.coppersurfer.tk%3A6969","udp%3A%2F%2Fexodus.desync.com%3A6969"],"infoHash":"3689e5b8538696d6cce06c9b726a4154ec40d3c3","infoHashBuffer":{"type":"Buffer","data":[54,137,229,184,83,134,150,214,204,224,108,155,114,106,65,84,236,64,211,195]},"announce":[],"urlList":[]}}